<mxfile host="app.diagrams.net" modified="2023-12-06T19:13:57.351Z" agent="Mozilla/5.0 (Windows NT 10.0; Win64; x64) AppleWebKit/537.36 (KHTML, like Gecko) Chrome/119.0.0.0 Safari/537.36" etag="kO3nQwuUujVU9xywWQ5r" version="22.1.5" type="device">
  <diagram name="Page-1" id="YX296iFyKr3NokcUjQ5r">
    <mxGraphModel dx="1793" dy="975" grid="1" gridSize="10" guides="1" tooltips="1" connect="1" arrows="1" fold="1" page="1" pageScale="1" pageWidth="850" pageHeight="1100" math="0" shadow="0">
      <root>
        <mxCell id="0" />
        <mxCell id="1" parent="0" />
        <mxCell id="meLUAZUyP2Nn7ndX3oYQ-3" value="" style="edgeStyle=orthogonalEdgeStyle;rounded=0;orthogonalLoop=1;jettySize=auto;html=1;" edge="1" parent="1" source="meLUAZUyP2Nn7ndX3oYQ-1" target="meLUAZUyP2Nn7ndX3oYQ-2">
          <mxGeometry relative="1" as="geometry" />
        </mxCell>
        <mxCell id="meLUAZUyP2Nn7ndX3oYQ-1" value="start" style="ellipse;whiteSpace=wrap;html=1;aspect=fixed;" vertex="1" parent="1">
          <mxGeometry x="100" y="20" width="70" height="70" as="geometry" />
        </mxCell>
        <mxCell id="meLUAZUyP2Nn7ndX3oYQ-5" value="" style="edgeStyle=orthogonalEdgeStyle;rounded=0;orthogonalLoop=1;jettySize=auto;html=1;" edge="1" parent="1" source="meLUAZUyP2Nn7ndX3oYQ-2" target="meLUAZUyP2Nn7ndX3oYQ-4">
          <mxGeometry relative="1" as="geometry" />
        </mxCell>
        <mxCell id="meLUAZUyP2Nn7ndX3oYQ-2" value="57" style="ellipse;whiteSpace=wrap;html=1;aspect=fixed;" vertex="1" parent="1">
          <mxGeometry x="110" y="120" width="50" height="50" as="geometry" />
        </mxCell>
        <mxCell id="meLUAZUyP2Nn7ndX3oYQ-7" value="" style="edgeStyle=orthogonalEdgeStyle;rounded=0;orthogonalLoop=1;jettySize=auto;html=1;" edge="1" parent="1" source="meLUAZUyP2Nn7ndX3oYQ-4" target="meLUAZUyP2Nn7ndX3oYQ-6">
          <mxGeometry relative="1" as="geometry" />
        </mxCell>
        <mxCell id="meLUAZUyP2Nn7ndX3oYQ-4" value="58" style="ellipse;whiteSpace=wrap;html=1;aspect=fixed;" vertex="1" parent="1">
          <mxGeometry x="110" y="200" width="50" height="50" as="geometry" />
        </mxCell>
        <mxCell id="meLUAZUyP2Nn7ndX3oYQ-9" value="" style="edgeStyle=orthogonalEdgeStyle;rounded=0;orthogonalLoop=1;jettySize=auto;html=1;" edge="1" parent="1" source="meLUAZUyP2Nn7ndX3oYQ-6" target="meLUAZUyP2Nn7ndX3oYQ-8">
          <mxGeometry relative="1" as="geometry" />
        </mxCell>
        <mxCell id="meLUAZUyP2Nn7ndX3oYQ-6" value="59" style="ellipse;whiteSpace=wrap;html=1;aspect=fixed;" vertex="1" parent="1">
          <mxGeometry x="110" y="270" width="50" height="50" as="geometry" />
        </mxCell>
        <mxCell id="meLUAZUyP2Nn7ndX3oYQ-11" value="" style="edgeStyle=orthogonalEdgeStyle;rounded=0;orthogonalLoop=1;jettySize=auto;html=1;" edge="1" parent="1" source="meLUAZUyP2Nn7ndX3oYQ-8" target="meLUAZUyP2Nn7ndX3oYQ-10">
          <mxGeometry relative="1" as="geometry" />
        </mxCell>
        <mxCell id="meLUAZUyP2Nn7ndX3oYQ-8" value="60" style="ellipse;whiteSpace=wrap;html=1;aspect=fixed;" vertex="1" parent="1">
          <mxGeometry x="110" y="350" width="50" height="50" as="geometry" />
        </mxCell>
        <mxCell id="meLUAZUyP2Nn7ndX3oYQ-13" value="" style="edgeStyle=orthogonalEdgeStyle;rounded=0;orthogonalLoop=1;jettySize=auto;html=1;" edge="1" parent="1" source="meLUAZUyP2Nn7ndX3oYQ-10" target="meLUAZUyP2Nn7ndX3oYQ-12">
          <mxGeometry relative="1" as="geometry" />
        </mxCell>
        <mxCell id="meLUAZUyP2Nn7ndX3oYQ-10" value="61" style="ellipse;whiteSpace=wrap;html=1;aspect=fixed;" vertex="1" parent="1">
          <mxGeometry x="30" y="420" width="50" height="50" as="geometry" />
        </mxCell>
        <mxCell id="meLUAZUyP2Nn7ndX3oYQ-15" value="" style="edgeStyle=orthogonalEdgeStyle;rounded=0;orthogonalLoop=1;jettySize=auto;html=1;" edge="1" parent="1" source="meLUAZUyP2Nn7ndX3oYQ-12" target="meLUAZUyP2Nn7ndX3oYQ-14">
          <mxGeometry relative="1" as="geometry" />
        </mxCell>
        <mxCell id="meLUAZUyP2Nn7ndX3oYQ-12" value="62" style="ellipse;whiteSpace=wrap;html=1;aspect=fixed;" vertex="1" parent="1">
          <mxGeometry x="30" y="500" width="50" height="50" as="geometry" />
        </mxCell>
        <mxCell id="meLUAZUyP2Nn7ndX3oYQ-17" value="" style="edgeStyle=orthogonalEdgeStyle;rounded=0;orthogonalLoop=1;jettySize=auto;html=1;" edge="1" parent="1" source="meLUAZUyP2Nn7ndX3oYQ-14" target="meLUAZUyP2Nn7ndX3oYQ-16">
          <mxGeometry relative="1" as="geometry" />
        </mxCell>
        <mxCell id="meLUAZUyP2Nn7ndX3oYQ-14" value="63" style="ellipse;whiteSpace=wrap;html=1;aspect=fixed;" vertex="1" parent="1">
          <mxGeometry x="30" y="590" width="50" height="50" as="geometry" />
        </mxCell>
        <mxCell id="meLUAZUyP2Nn7ndX3oYQ-21" value="" style="edgeStyle=orthogonalEdgeStyle;rounded=0;orthogonalLoop=1;jettySize=auto;html=1;entryX=0;entryY=0.5;entryDx=0;entryDy=0;exitX=0.5;exitY=1;exitDx=0;exitDy=0;" edge="1" parent="1" source="meLUAZUyP2Nn7ndX3oYQ-16" target="meLUAZUyP2Nn7ndX3oYQ-20">
          <mxGeometry relative="1" as="geometry" />
        </mxCell>
        <mxCell id="meLUAZUyP2Nn7ndX3oYQ-16" value="65" style="ellipse;whiteSpace=wrap;html=1;aspect=fixed;" vertex="1" parent="1">
          <mxGeometry x="30" y="670" width="50" height="50" as="geometry" />
        </mxCell>
        <mxCell id="meLUAZUyP2Nn7ndX3oYQ-23" value="" style="edgeStyle=orthogonalEdgeStyle;rounded=0;orthogonalLoop=1;jettySize=auto;html=1;" edge="1" parent="1" source="meLUAZUyP2Nn7ndX3oYQ-20" target="meLUAZUyP2Nn7ndX3oYQ-22">
          <mxGeometry relative="1" as="geometry" />
        </mxCell>
        <mxCell id="meLUAZUyP2Nn7ndX3oYQ-44" value="" style="edgeStyle=orthogonalEdgeStyle;rounded=0;orthogonalLoop=1;jettySize=auto;html=1;" edge="1" parent="1" source="meLUAZUyP2Nn7ndX3oYQ-20" target="meLUAZUyP2Nn7ndX3oYQ-43">
          <mxGeometry relative="1" as="geometry" />
        </mxCell>
        <mxCell id="meLUAZUyP2Nn7ndX3oYQ-20" value="66" style="ellipse;whiteSpace=wrap;html=1;aspect=fixed;" vertex="1" parent="1">
          <mxGeometry x="220" y="750" width="50" height="50" as="geometry" />
        </mxCell>
        <mxCell id="meLUAZUyP2Nn7ndX3oYQ-25" value="" style="edgeStyle=orthogonalEdgeStyle;rounded=0;orthogonalLoop=1;jettySize=auto;html=1;" edge="1" parent="1" source="meLUAZUyP2Nn7ndX3oYQ-22" target="meLUAZUyP2Nn7ndX3oYQ-24">
          <mxGeometry relative="1" as="geometry" />
        </mxCell>
        <mxCell id="meLUAZUyP2Nn7ndX3oYQ-22" value="72" style="ellipse;whiteSpace=wrap;html=1;aspect=fixed;" vertex="1" parent="1">
          <mxGeometry x="220" y="670" width="50" height="50" as="geometry" />
        </mxCell>
        <mxCell id="meLUAZUyP2Nn7ndX3oYQ-27" value="" style="edgeStyle=orthogonalEdgeStyle;rounded=0;orthogonalLoop=1;jettySize=auto;html=1;" edge="1" parent="1" source="meLUAZUyP2Nn7ndX3oYQ-24" target="meLUAZUyP2Nn7ndX3oYQ-26">
          <mxGeometry relative="1" as="geometry" />
        </mxCell>
        <mxCell id="meLUAZUyP2Nn7ndX3oYQ-24" value="73" style="ellipse;whiteSpace=wrap;html=1;aspect=fixed;" vertex="1" parent="1">
          <mxGeometry x="220" y="590" width="50" height="50" as="geometry" />
        </mxCell>
        <mxCell id="meLUAZUyP2Nn7ndX3oYQ-29" value="" style="edgeStyle=orthogonalEdgeStyle;rounded=0;orthogonalLoop=1;jettySize=auto;html=1;" edge="1" parent="1" source="meLUAZUyP2Nn7ndX3oYQ-26" target="meLUAZUyP2Nn7ndX3oYQ-28">
          <mxGeometry relative="1" as="geometry" />
        </mxCell>
        <mxCell id="meLUAZUyP2Nn7ndX3oYQ-26" value="74" style="ellipse;whiteSpace=wrap;html=1;aspect=fixed;" vertex="1" parent="1">
          <mxGeometry x="220" y="500" width="50" height="50" as="geometry" />
        </mxCell>
        <mxCell id="meLUAZUyP2Nn7ndX3oYQ-31" value="" style="edgeStyle=orthogonalEdgeStyle;rounded=0;orthogonalLoop=1;jettySize=auto;html=1;" edge="1" parent="1" source="meLUAZUyP2Nn7ndX3oYQ-28" target="meLUAZUyP2Nn7ndX3oYQ-30">
          <mxGeometry relative="1" as="geometry" />
        </mxCell>
        <mxCell id="meLUAZUyP2Nn7ndX3oYQ-42" value="" style="edgeStyle=orthogonalEdgeStyle;rounded=0;orthogonalLoop=1;jettySize=auto;html=1;" edge="1" parent="1" source="meLUAZUyP2Nn7ndX3oYQ-28" target="meLUAZUyP2Nn7ndX3oYQ-41">
          <mxGeometry relative="1" as="geometry" />
        </mxCell>
        <mxCell id="meLUAZUyP2Nn7ndX3oYQ-28" value="75" style="ellipse;whiteSpace=wrap;html=1;aspect=fixed;" vertex="1" parent="1">
          <mxGeometry x="320" y="500" width="50" height="50" as="geometry" />
        </mxCell>
        <mxCell id="meLUAZUyP2Nn7ndX3oYQ-33" value="" style="edgeStyle=orthogonalEdgeStyle;rounded=0;orthogonalLoop=1;jettySize=auto;html=1;" edge="1" parent="1" source="meLUAZUyP2Nn7ndX3oYQ-30" target="meLUAZUyP2Nn7ndX3oYQ-32">
          <mxGeometry relative="1" as="geometry" />
        </mxCell>
        <mxCell id="meLUAZUyP2Nn7ndX3oYQ-30" value="79" style="ellipse;whiteSpace=wrap;html=1;aspect=fixed;" vertex="1" parent="1">
          <mxGeometry x="320" y="400" width="50" height="50" as="geometry" />
        </mxCell>
        <mxCell id="meLUAZUyP2Nn7ndX3oYQ-34" style="edgeStyle=orthogonalEdgeStyle;rounded=0;orthogonalLoop=1;jettySize=auto;html=1;exitX=0;exitY=0.5;exitDx=0;exitDy=0;entryX=1;entryY=0.5;entryDx=0;entryDy=0;" edge="1" parent="1" source="meLUAZUyP2Nn7ndX3oYQ-32" target="meLUAZUyP2Nn7ndX3oYQ-8">
          <mxGeometry relative="1" as="geometry" />
        </mxCell>
        <mxCell id="meLUAZUyP2Nn7ndX3oYQ-32" value="80" style="ellipse;whiteSpace=wrap;html=1;aspect=fixed;" vertex="1" parent="1">
          <mxGeometry x="220" y="400" width="50" height="50" as="geometry" />
        </mxCell>
        <mxCell id="meLUAZUyP2Nn7ndX3oYQ-56" value="" style="edgeStyle=orthogonalEdgeStyle;rounded=0;orthogonalLoop=1;jettySize=auto;html=1;" edge="1" parent="1" source="meLUAZUyP2Nn7ndX3oYQ-41" target="meLUAZUyP2Nn7ndX3oYQ-55">
          <mxGeometry relative="1" as="geometry" />
        </mxCell>
        <mxCell id="meLUAZUyP2Nn7ndX3oYQ-41" value="76" style="ellipse;whiteSpace=wrap;html=1;aspect=fixed;" vertex="1" parent="1">
          <mxGeometry x="390" y="390" width="50" height="50" as="geometry" />
        </mxCell>
        <mxCell id="meLUAZUyP2Nn7ndX3oYQ-46" value="" style="edgeStyle=orthogonalEdgeStyle;rounded=0;orthogonalLoop=1;jettySize=auto;html=1;" edge="1" parent="1" source="meLUAZUyP2Nn7ndX3oYQ-43" target="meLUAZUyP2Nn7ndX3oYQ-45">
          <mxGeometry relative="1" as="geometry" />
        </mxCell>
        <mxCell id="meLUAZUyP2Nn7ndX3oYQ-43" value="68" style="ellipse;whiteSpace=wrap;html=1;aspect=fixed;" vertex="1" parent="1">
          <mxGeometry x="310" y="750" width="50" height="50" as="geometry" />
        </mxCell>
        <mxCell id="meLUAZUyP2Nn7ndX3oYQ-48" value="" style="edgeStyle=orthogonalEdgeStyle;rounded=0;orthogonalLoop=1;jettySize=auto;html=1;" edge="1" parent="1" source="meLUAZUyP2Nn7ndX3oYQ-45" target="meLUAZUyP2Nn7ndX3oYQ-47">
          <mxGeometry relative="1" as="geometry" />
        </mxCell>
        <mxCell id="meLUAZUyP2Nn7ndX3oYQ-45" value="69" style="ellipse;whiteSpace=wrap;html=1;aspect=fixed;" vertex="1" parent="1">
          <mxGeometry x="390" y="750" width="50" height="50" as="geometry" />
        </mxCell>
        <mxCell id="meLUAZUyP2Nn7ndX3oYQ-50" value="" style="edgeStyle=orthogonalEdgeStyle;rounded=0;orthogonalLoop=1;jettySize=auto;html=1;" edge="1" parent="1" source="meLUAZUyP2Nn7ndX3oYQ-47" target="meLUAZUyP2Nn7ndX3oYQ-49">
          <mxGeometry relative="1" as="geometry" />
        </mxCell>
        <mxCell id="meLUAZUyP2Nn7ndX3oYQ-47" value="70" style="ellipse;whiteSpace=wrap;html=1;aspect=fixed;" vertex="1" parent="1">
          <mxGeometry x="480" y="750" width="50" height="50" as="geometry" />
        </mxCell>
        <mxCell id="meLUAZUyP2Nn7ndX3oYQ-52" value="" style="edgeStyle=orthogonalEdgeStyle;rounded=0;orthogonalLoop=1;jettySize=auto;html=1;" edge="1" parent="1" source="meLUAZUyP2Nn7ndX3oYQ-49" target="meLUAZUyP2Nn7ndX3oYQ-51">
          <mxGeometry relative="1" as="geometry" />
        </mxCell>
        <mxCell id="meLUAZUyP2Nn7ndX3oYQ-49" value="71" style="ellipse;whiteSpace=wrap;html=1;aspect=fixed;" vertex="1" parent="1">
          <mxGeometry x="570" y="750" width="50" height="50" as="geometry" />
        </mxCell>
        <mxCell id="meLUAZUyP2Nn7ndX3oYQ-54" value="" style="edgeStyle=orthogonalEdgeStyle;rounded=0;orthogonalLoop=1;jettySize=auto;html=1;" edge="1" parent="1" source="meLUAZUyP2Nn7ndX3oYQ-51" target="meLUAZUyP2Nn7ndX3oYQ-53">
          <mxGeometry relative="1" as="geometry" />
        </mxCell>
        <mxCell id="meLUAZUyP2Nn7ndX3oYQ-51" value="86" style="ellipse;whiteSpace=wrap;html=1;aspect=fixed;" vertex="1" parent="1">
          <mxGeometry x="660" y="750" width="50" height="50" as="geometry" />
        </mxCell>
        <mxCell id="meLUAZUyP2Nn7ndX3oYQ-53" value="end" style="ellipse;whiteSpace=wrap;html=1;" vertex="1" parent="1">
          <mxGeometry x="760" y="735" width="80" height="80" as="geometry" />
        </mxCell>
        <mxCell id="meLUAZUyP2Nn7ndX3oYQ-58" value="" style="edgeStyle=orthogonalEdgeStyle;rounded=0;orthogonalLoop=1;jettySize=auto;html=1;" edge="1" parent="1" source="meLUAZUyP2Nn7ndX3oYQ-55" target="meLUAZUyP2Nn7ndX3oYQ-57">
          <mxGeometry relative="1" as="geometry" />
        </mxCell>
        <mxCell id="meLUAZUyP2Nn7ndX3oYQ-55" value="77" style="ellipse;whiteSpace=wrap;html=1;aspect=fixed;" vertex="1" parent="1">
          <mxGeometry x="480" y="390" width="50" height="50" as="geometry" />
        </mxCell>
        <mxCell id="meLUAZUyP2Nn7ndX3oYQ-60" value="" style="edgeStyle=orthogonalEdgeStyle;rounded=0;orthogonalLoop=1;jettySize=auto;html=1;" edge="1" parent="1" source="meLUAZUyP2Nn7ndX3oYQ-57" target="meLUAZUyP2Nn7ndX3oYQ-59">
          <mxGeometry relative="1" as="geometry" />
        </mxCell>
        <mxCell id="meLUAZUyP2Nn7ndX3oYQ-57" value="9" style="ellipse;whiteSpace=wrap;html=1;aspect=fixed;" vertex="1" parent="1">
          <mxGeometry x="570" y="390" width="50" height="50" as="geometry" />
        </mxCell>
        <mxCell id="meLUAZUyP2Nn7ndX3oYQ-62" value="" style="edgeStyle=orthogonalEdgeStyle;rounded=0;orthogonalLoop=1;jettySize=auto;html=1;" edge="1" parent="1" source="meLUAZUyP2Nn7ndX3oYQ-59" target="meLUAZUyP2Nn7ndX3oYQ-61">
          <mxGeometry relative="1" as="geometry" />
        </mxCell>
        <mxCell id="meLUAZUyP2Nn7ndX3oYQ-59" value="10" style="ellipse;whiteSpace=wrap;html=1;aspect=fixed;" vertex="1" parent="1">
          <mxGeometry x="660" y="390" width="50" height="50" as="geometry" />
        </mxCell>
        <mxCell id="meLUAZUyP2Nn7ndX3oYQ-64" value="" style="edgeStyle=orthogonalEdgeStyle;rounded=0;orthogonalLoop=1;jettySize=auto;html=1;" edge="1" parent="1" source="meLUAZUyP2Nn7ndX3oYQ-61" target="meLUAZUyP2Nn7ndX3oYQ-63">
          <mxGeometry relative="1" as="geometry" />
        </mxCell>
        <mxCell id="meLUAZUyP2Nn7ndX3oYQ-61" value="11" style="ellipse;whiteSpace=wrap;html=1;aspect=fixed;" vertex="1" parent="1">
          <mxGeometry x="760" y="390" width="50" height="50" as="geometry" />
        </mxCell>
        <mxCell id="meLUAZUyP2Nn7ndX3oYQ-66" value="" style="edgeStyle=orthogonalEdgeStyle;rounded=0;orthogonalLoop=1;jettySize=auto;html=1;" edge="1" parent="1" source="meLUAZUyP2Nn7ndX3oYQ-63" target="meLUAZUyP2Nn7ndX3oYQ-65">
          <mxGeometry relative="1" as="geometry" />
        </mxCell>
        <mxCell id="meLUAZUyP2Nn7ndX3oYQ-63" value="12" style="ellipse;whiteSpace=wrap;html=1;aspect=fixed;" vertex="1" parent="1">
          <mxGeometry x="840" y="390" width="50" height="50" as="geometry" />
        </mxCell>
        <mxCell id="meLUAZUyP2Nn7ndX3oYQ-68" value="" style="edgeStyle=orthogonalEdgeStyle;rounded=0;orthogonalLoop=1;jettySize=auto;html=1;" edge="1" parent="1" source="meLUAZUyP2Nn7ndX3oYQ-65" target="meLUAZUyP2Nn7ndX3oYQ-67">
          <mxGeometry relative="1" as="geometry" />
        </mxCell>
        <mxCell id="meLUAZUyP2Nn7ndX3oYQ-65" value="13" style="ellipse;whiteSpace=wrap;html=1;aspect=fixed;" vertex="1" parent="1">
          <mxGeometry x="930" y="390" width="50" height="50" as="geometry" />
        </mxCell>
        <mxCell id="meLUAZUyP2Nn7ndX3oYQ-70" value="" style="edgeStyle=orthogonalEdgeStyle;rounded=0;orthogonalLoop=1;jettySize=auto;html=1;entryX=0.5;entryY=0;entryDx=0;entryDy=0;" edge="1" parent="1" source="meLUAZUyP2Nn7ndX3oYQ-67" target="meLUAZUyP2Nn7ndX3oYQ-69">
          <mxGeometry relative="1" as="geometry" />
        </mxCell>
        <mxCell id="meLUAZUyP2Nn7ndX3oYQ-67" value="14" style="ellipse;whiteSpace=wrap;html=1;aspect=fixed;" vertex="1" parent="1">
          <mxGeometry x="1030" y="390" width="50" height="50" as="geometry" />
        </mxCell>
        <mxCell id="meLUAZUyP2Nn7ndX3oYQ-72" value="" style="edgeStyle=orthogonalEdgeStyle;rounded=0;orthogonalLoop=1;jettySize=auto;html=1;" edge="1" parent="1" source="meLUAZUyP2Nn7ndX3oYQ-69" target="meLUAZUyP2Nn7ndX3oYQ-71">
          <mxGeometry relative="1" as="geometry" />
        </mxCell>
        <mxCell id="meLUAZUyP2Nn7ndX3oYQ-83" value="" style="edgeStyle=orthogonalEdgeStyle;rounded=0;orthogonalLoop=1;jettySize=auto;html=1;" edge="1" parent="1" source="meLUAZUyP2Nn7ndX3oYQ-69" target="meLUAZUyP2Nn7ndX3oYQ-82">
          <mxGeometry relative="1" as="geometry" />
        </mxCell>
        <mxCell id="meLUAZUyP2Nn7ndX3oYQ-96" value="" style="edgeStyle=orthogonalEdgeStyle;rounded=0;orthogonalLoop=1;jettySize=auto;html=1;" edge="1" parent="1" source="meLUAZUyP2Nn7ndX3oYQ-69" target="meLUAZUyP2Nn7ndX3oYQ-95">
          <mxGeometry relative="1" as="geometry" />
        </mxCell>
        <mxCell id="meLUAZUyP2Nn7ndX3oYQ-69" value="16" style="ellipse;whiteSpace=wrap;html=1;aspect=fixed;" vertex="1" parent="1">
          <mxGeometry x="1110" y="500" width="50" height="50" as="geometry" />
        </mxCell>
        <mxCell id="meLUAZUyP2Nn7ndX3oYQ-74" value="" style="edgeStyle=orthogonalEdgeStyle;rounded=0;orthogonalLoop=1;jettySize=auto;html=1;" edge="1" parent="1" source="meLUAZUyP2Nn7ndX3oYQ-71" target="meLUAZUyP2Nn7ndX3oYQ-73">
          <mxGeometry relative="1" as="geometry" />
        </mxCell>
        <mxCell id="meLUAZUyP2Nn7ndX3oYQ-71" value="18" style="ellipse;whiteSpace=wrap;html=1;aspect=fixed;" vertex="1" parent="1">
          <mxGeometry x="1110" y="580" width="50" height="50" as="geometry" />
        </mxCell>
        <mxCell id="meLUAZUyP2Nn7ndX3oYQ-76" value="" style="edgeStyle=orthogonalEdgeStyle;rounded=0;orthogonalLoop=1;jettySize=auto;html=1;" edge="1" parent="1" source="meLUAZUyP2Nn7ndX3oYQ-73" target="meLUAZUyP2Nn7ndX3oYQ-75">
          <mxGeometry relative="1" as="geometry" />
        </mxCell>
        <mxCell id="meLUAZUyP2Nn7ndX3oYQ-73" value="19" style="ellipse;whiteSpace=wrap;html=1;aspect=fixed;" vertex="1" parent="1">
          <mxGeometry x="1110" y="670" width="50" height="50" as="geometry" />
        </mxCell>
        <mxCell id="meLUAZUyP2Nn7ndX3oYQ-78" value="" style="edgeStyle=orthogonalEdgeStyle;rounded=0;orthogonalLoop=1;jettySize=auto;html=1;" edge="1" parent="1" source="meLUAZUyP2Nn7ndX3oYQ-75" target="meLUAZUyP2Nn7ndX3oYQ-77">
          <mxGeometry relative="1" as="geometry" />
        </mxCell>
        <mxCell id="meLUAZUyP2Nn7ndX3oYQ-75" value="20" style="ellipse;whiteSpace=wrap;html=1;aspect=fixed;" vertex="1" parent="1">
          <mxGeometry x="1110" y="750" width="50" height="50" as="geometry" />
        </mxCell>
        <mxCell id="meLUAZUyP2Nn7ndX3oYQ-80" value="" style="edgeStyle=orthogonalEdgeStyle;rounded=0;orthogonalLoop=1;jettySize=auto;html=1;" edge="1" parent="1" source="meLUAZUyP2Nn7ndX3oYQ-77" target="meLUAZUyP2Nn7ndX3oYQ-79">
          <mxGeometry relative="1" as="geometry" />
        </mxCell>
        <mxCell id="meLUAZUyP2Nn7ndX3oYQ-77" value="21" style="ellipse;whiteSpace=wrap;html=1;aspect=fixed;" vertex="1" parent="1">
          <mxGeometry x="1000" y="750" width="50" height="50" as="geometry" />
        </mxCell>
        <mxCell id="meLUAZUyP2Nn7ndX3oYQ-81" style="edgeStyle=orthogonalEdgeStyle;rounded=0;orthogonalLoop=1;jettySize=auto;html=1;exitX=0;exitY=0.5;exitDx=0;exitDy=0;entryX=1;entryY=0.5;entryDx=0;entryDy=0;" edge="1" parent="1" source="meLUAZUyP2Nn7ndX3oYQ-79" target="meLUAZUyP2Nn7ndX3oYQ-53">
          <mxGeometry relative="1" as="geometry" />
        </mxCell>
        <mxCell id="meLUAZUyP2Nn7ndX3oYQ-79" value="22" style="ellipse;whiteSpace=wrap;html=1;aspect=fixed;" vertex="1" parent="1">
          <mxGeometry x="890" y="750" width="50" height="50" as="geometry" />
        </mxCell>
        <mxCell id="meLUAZUyP2Nn7ndX3oYQ-90" value="" style="edgeStyle=orthogonalEdgeStyle;rounded=0;orthogonalLoop=1;jettySize=auto;html=1;" edge="1" parent="1" source="meLUAZUyP2Nn7ndX3oYQ-82" target="meLUAZUyP2Nn7ndX3oYQ-89">
          <mxGeometry relative="1" as="geometry" />
        </mxCell>
        <mxCell id="meLUAZUyP2Nn7ndX3oYQ-82" value="16" style="ellipse;whiteSpace=wrap;html=1;aspect=fixed;" vertex="1" parent="1">
          <mxGeometry x="980" y="500" width="50" height="50" as="geometry" />
        </mxCell>
        <mxCell id="meLUAZUyP2Nn7ndX3oYQ-93" value="" style="edgeStyle=orthogonalEdgeStyle;rounded=0;orthogonalLoop=1;jettySize=auto;html=1;" edge="1" parent="1" source="meLUAZUyP2Nn7ndX3oYQ-89" target="meLUAZUyP2Nn7ndX3oYQ-92">
          <mxGeometry relative="1" as="geometry" />
        </mxCell>
        <mxCell id="meLUAZUyP2Nn7ndX3oYQ-89" value="16" style="ellipse;whiteSpace=wrap;html=1;aspect=fixed;" vertex="1" parent="1">
          <mxGeometry x="980" y="580" width="50" height="50" as="geometry" />
        </mxCell>
        <mxCell id="meLUAZUyP2Nn7ndX3oYQ-94" style="edgeStyle=orthogonalEdgeStyle;rounded=0;orthogonalLoop=1;jettySize=auto;html=1;exitX=1;exitY=0.5;exitDx=0;exitDy=0;entryX=0;entryY=0.5;entryDx=0;entryDy=0;" edge="1" parent="1" source="meLUAZUyP2Nn7ndX3oYQ-92" target="meLUAZUyP2Nn7ndX3oYQ-73">
          <mxGeometry relative="1" as="geometry" />
        </mxCell>
        <mxCell id="meLUAZUyP2Nn7ndX3oYQ-92" value="16" style="ellipse;whiteSpace=wrap;html=1;aspect=fixed;" vertex="1" parent="1">
          <mxGeometry x="980" y="670" width="50" height="50" as="geometry" />
        </mxCell>
        <mxCell id="meLUAZUyP2Nn7ndX3oYQ-98" value="" style="edgeStyle=orthogonalEdgeStyle;rounded=0;orthogonalLoop=1;jettySize=auto;html=1;" edge="1" parent="1" source="meLUAZUyP2Nn7ndX3oYQ-95" target="meLUAZUyP2Nn7ndX3oYQ-97">
          <mxGeometry relative="1" as="geometry" />
        </mxCell>
        <mxCell id="meLUAZUyP2Nn7ndX3oYQ-95" value="16" style="ellipse;whiteSpace=wrap;html=1;aspect=fixed;" vertex="1" parent="1">
          <mxGeometry x="1240" y="500" width="50" height="50" as="geometry" />
        </mxCell>
        <mxCell id="meLUAZUyP2Nn7ndX3oYQ-100" value="" style="edgeStyle=orthogonalEdgeStyle;rounded=0;orthogonalLoop=1;jettySize=auto;html=1;" edge="1" parent="1" source="meLUAZUyP2Nn7ndX3oYQ-97" target="meLUAZUyP2Nn7ndX3oYQ-99">
          <mxGeometry relative="1" as="geometry" />
        </mxCell>
        <mxCell id="meLUAZUyP2Nn7ndX3oYQ-97" value="16" style="ellipse;whiteSpace=wrap;html=1;aspect=fixed;" vertex="1" parent="1">
          <mxGeometry x="1240" y="580" width="50" height="50" as="geometry" />
        </mxCell>
        <mxCell id="meLUAZUyP2Nn7ndX3oYQ-101" style="edgeStyle=orthogonalEdgeStyle;rounded=0;orthogonalLoop=1;jettySize=auto;html=1;exitX=0;exitY=0.5;exitDx=0;exitDy=0;entryX=1;entryY=0.5;entryDx=0;entryDy=0;" edge="1" parent="1" source="meLUAZUyP2Nn7ndX3oYQ-99" target="meLUAZUyP2Nn7ndX3oYQ-73">
          <mxGeometry relative="1" as="geometry" />
        </mxCell>
        <mxCell id="meLUAZUyP2Nn7ndX3oYQ-99" value="16" style="ellipse;whiteSpace=wrap;html=1;aspect=fixed;" vertex="1" parent="1">
          <mxGeometry x="1240" y="670" width="50" height="50" as="geometry" />
        </mxCell>
        <mxCell id="meLUAZUyP2Nn7ndX3oYQ-102" value="&lt;span style=&quot;font-size: 27px;&quot;&gt;&lt;b&gt;| edges | - | nodes | + 2 x P = 45 - 42 + 2 = 5&lt;/b&gt;&lt;/span&gt;" style="text;html=1;strokeColor=none;fillColor=none;align=center;verticalAlign=middle;whiteSpace=wrap;rounded=0;fontSize=22;" vertex="1" parent="1">
          <mxGeometry x="410" y="815" width="600" height="60" as="geometry" />
        </mxCell>
        <mxCell id="meLUAZUyP2Nn7ndX3oYQ-103" value="&lt;span style=&quot;font-size: 27px;&quot;&gt;&lt;b&gt;Account Service&lt;/b&gt;&lt;/span&gt;" style="text;html=1;strokeColor=none;fillColor=none;align=center;verticalAlign=middle;whiteSpace=wrap;rounded=0;fontSize=22;" vertex="1" parent="1">
          <mxGeometry x="400" y="50" width="600" height="60" as="geometry" />
        </mxCell>
      </root>
    </mxGraphModel>
  </diagram>
</mxfile>
